<svg xmlns="http://www.w3.org/2000/svg" xmlns:xlink="http://www.w3.org/1999/xlink" width="80px" height="80px" viewBox="0 0 80 80" version="1.1">
    <title>News</title>
    <defs>
        <radialGradient cx="50%" cy="50%" fx="50%" fy="50%" r="50%" id="radialGradient-1">
            <stop stop-color="#3B3B40" offset="0%"/>
            <stop stop-color="#252528" offset="100%"/>
        </radialGradient>
        <linearGradient x1="8.67768595%" y1="-4.64905892e-14%" x2="91.322314%" y2="100%" id="linearGradient-2">
            <stop stop-color="#2199F5" offset="0%"/>
            <stop stop-color="#2374F2" offset="100%"/>
        </linearGradient>
        <path d="M4,0 L36,0 C38.209139,-4.05812251e-16 40,1.790861 40,4 L40,40 C40,42.209139 38.209139,44 36,44 L4,44 C1.790861,44 -1.73547709e-16,42.209139 0,40 L0,4 C-2.705415e-16,1.790861 1.790861,2.18216909e-15 4,0 Z" id="path-3"/>
        <filter x="-17.5%" y="-11.4%" width="135.0%" height="131.8%" filterUnits="objectBoundingBox" id="filter-4">
            <feOffset dx="0" dy="2" in="SourceAlpha" result="shadowOffsetOuter1"/>
            <feGaussianBlur stdDeviation="2" in="shadowOffsetOuter1" result="shadowBlurOuter1"/>
            <feColorMatrix values="0 0 0 0 0   0 0 0 0 0   0 0 0 0 0  0 0 0 0.151770105 0" type="matrix" in="shadowBlurOuter1"/>
        </filter>
        <linearGradient x1="9.5%" y1="-4.64905892e-14%" x2="90.5%" y2="100%" id="linearGradient-5">
            <stop stop-color="#2199F5" offset="0%"/>
            <stop stop-color="#2374F2" offset="100%"/>
        </linearGradient>
        <path d="M4,2 L36,2 C37.1045695,2 38,2.8954305 38,4 L38,40 C38,41.1045695 37.1045695,42 36,42 L4,42 C2.8954305,42 2,41.1045695 2,40 L2,4 C2,2.8954305 2.8954305,2 4,2 Z" id="path-6"/>
        <filter x="-19.4%" y="-12.5%" width="138.9%" height="135.0%" filterUnits="objectBoundingBox" id="filter-7">
            <feOffset dx="0" dy="2" in="SourceAlpha" result="shadowOffsetOuter1"/>
            <feGaussianBlur stdDeviation="2" in="shadowOffsetOuter1" result="shadowBlurOuter1"/>
            <feColorMatrix values="0 0 0 0 0   0 0 0 0 0   0 0 0 0 0  0 0 0 0.151770105 0" type="matrix" in="shadowBlurOuter1"/>
        </filter>
    </defs>
    <g id="📦-Component" stroke="none" stroke-width="1" fill="none" fill-rule="evenodd">
        <g id="📦-Component/Desktop/Header/Sign-In/Open/Community-1024" transform="translate(-472.000000, -120.000000)">
            <g id="Group-2" transform="translate(0.000000, 55.000000)">
                <g id="News" transform="translate(472.000000, 65.000000)">
                    <rect id="Rectangle-Copy-2" fill="url(#radialGradient-1)" x="0" y="0" width="80" height="80" rx="6"/>
                    <g id="Group-4" transform="translate(20.000000, 18.000000)">
                        <path d="M18,19 L29,19 C29.5522847,19 30,19.4477153 30,20 C30,20.5522847 29.5522847,21 29,21 L18,21 C17.4477153,21 17,20.5522847 17,20 C17,19.4477153 17.4477153,19 18,19 Z" id="Rectangle" fill="#FFFFFF"/>
                        <g id="Rectangle">
                            <use fill="black" fill-opacity="1" filter="url(#filter-4)" xlink:href="#path-3"/>
                            <use fill="url(#linearGradient-2)" fill-rule="evenodd" xlink:href="#path-3"/>
                        </g>
                        <g id="Rectangle-Copy">
                            <use fill="black" fill-opacity="1" filter="url(#filter-7)" xlink:href="#path-6"/>
                            <use fill="url(#linearGradient-5)" fill-rule="evenodd" xlink:href="#path-6"/>
                        </g>
                        <g id="Group" transform="translate(7.000000, 27.000000)" fill="#FFFFFF" fill-rule="nonzero">
                            <path d="M12,0 L23,0 C23.5522847,-1.01453063e-16 24,0.44771525 24,1 C24,1.55228475 23.5522847,2 23,2 L12,2 C11.4477153,2 11,1.55228475 11,1 C11,0.44771525 11.4477153,1.01453063e-16 12,0 Z" id="Rectangle-Copy-2"/>
                            <rect id="Rectangle-Copy-3" x="11" y="4" width="10" height="2" rx="1"/>
                            <path d="M1,0 L8,0 C8.55228475,-1.01453063e-16 9,0.44771525 9,1 L9,5 C9,5.55228475 8.55228475,6 8,6 L1,6 C0.44771525,6 6.76353751e-17,5.55228475 0,5 L0,1 C-6.76353751e-17,0.44771525 0.44771525,-1.20591542e-16 1,0 Z" id="Rectangle-Copy-4"/>
                        </g>
                        <g id="Group-2" transform="translate(7.000000, 17.000000)" fill="#FFFFFF" fill-rule="nonzero">
                            <path d="M12,0 L23,0 C23.5522847,-1.01453063e-16 24,0.44771525 24,1 C24,1.55228475 23.5522847,2 23,2 L12,2 C11.4477153,2 11,1.55228475 11,1 C11,0.44771525 11.4477153,1.01453063e-16 12,0 Z" id="Rectangle-Copy-6"/>
                            <rect id="Rectangle-Copy-7" x="11" y="4" width="10" height="2" rx="1"/>
                            <path d="M1,0 L8,0 C8.55228475,-1.01453063e-16 9,0.44771525 9,1 L9,5 C9,5.55228475 8.55228475,6 8,6 L1,6 C0.44771525,6 6.76353751e-17,5.55228475 0,5 L0,1 C-6.76353751e-17,0.44771525 0.44771525,-1.20591542e-16 1,0 Z" id="Rectangle-Copy-8"/>
                        </g>
                        <g id="Group-2-Copy" transform="translate(7.000000, 7.000000)" fill="#FFFFFF" fill-rule="nonzero">
                            <path d="M12,0 L23,0 C23.5522847,-1.01453063e-16 24,0.44771525 24,1 C24,1.55228475 23.5522847,2 23,2 L12,2 C11.4477153,2 11,1.55228475 11,1 C11,0.44771525 11.4477153,1.01453063e-16 12,0 Z" id="Rectangle-Copy-6"/>
                            <rect id="Rectangle-Copy-7" x="11" y="4" width="10" height="2" rx="1"/>
                            <path d="M1,0 L8,0 C8.55228475,-1.01453063e-16 9,0.44771525 9,1 L9,5 C9,5.55228475 8.55228475,6 8,6 L1,6 C0.44771525,6 6.76353751e-17,5.55228475 0,5 L0,1 C-6.76353751e-17,0.44771525 0.44771525,-1.20591542e-16 1,0 Z" id="Rectangle-Copy-8"/>
                        </g>
                    </g>
                </g>
            </g>
        </g>
    </g>
</svg>