<svg xmlns="http://www.w3.org/2000/svg" xmlns:xlink="http://www.w3.org/1999/xlink" width="80px" height="80px" viewBox="0 0 80 80" version="1.1">
    <title>Glossary</title>
    <defs>
        <radialGradient cx="50%" cy="50%" fx="50%" fy="50%" r="50%" id="radialGradient-1">
            <stop stop-color="#3B3B40" offset="0%"/>
            <stop stop-color="#252528" offset="100%"/>
        </radialGradient>
        <linearGradient x1="8.67768595%" y1="-4.64905892e-14%" x2="91.322314%" y2="100%" id="linearGradient-2">
            <stop stop-color="#EB5B6C" offset="0%"/>
            <stop stop-color="#FA3356" offset="100%"/>
        </linearGradient>
        <path d="M4,0 L36,0 C38.209139,-4.05812251e-16 40,1.790861 40,4 L40,40 C40,42.209139 38.209139,44 36,44 L4,44 C1.790861,44 -1.73547709e-16,42.209139 0,40 L0,4 C-2.705415e-16,1.790861 1.790861,2.18216909e-15 4,0 Z" id="path-3"/>
        <filter x="-17.5%" y="-11.4%" width="135.0%" height="131.8%" filterUnits="objectBoundingBox" id="filter-4">
            <feOffset dx="0" dy="2" in="SourceAlpha" result="shadowOffsetOuter1"/>
            <feGaussianBlur stdDeviation="2" in="shadowOffsetOuter1" result="shadowBlurOuter1"/>
            <feColorMatrix values="0 0 0 0 0   0 0 0 0 0   0 0 0 0 0  0 0 0 0.155075393 0" type="matrix" in="shadowBlurOuter1"/>
        </filter>
        <linearGradient x1="9.5%" y1="-4.64905892e-14%" x2="90.5%" y2="100%" id="linearGradient-5">
            <stop stop-color="#EB5B6C" offset="0%"/>
            <stop stop-color="#FA3356" offset="100%"/>
        </linearGradient>
        <path d="M4,2 L36,2 C37.1045695,2 38,2.8954305 38,4 L38,40 C38,41.1045695 37.1045695,42 36,42 L4,42 C2.8954305,42 2,41.1045695 2,40 L2,4 C2,2.8954305 2.8954305,2 4,2 Z" id="path-6"/>
        <filter x="-19.4%" y="-12.5%" width="138.9%" height="135.0%" filterUnits="objectBoundingBox" id="filter-7">
            <feOffset dx="0" dy="2" in="SourceAlpha" result="shadowOffsetOuter1"/>
            <feGaussianBlur stdDeviation="2" in="shadowOffsetOuter1" result="shadowBlurOuter1"/>
            <feColorMatrix values="0 0 0 0 0   0 0 0 0 0   0 0 0 0 0  0 0 0 0.155075393 0" type="matrix" in="shadowBlurOuter1"/>
        </filter>
        <filter x="-48.1%" y="-39.1%" width="196.2%" height="178.2%" filterUnits="objectBoundingBox" id="filter-8">
            <feOffset dx="0" dy="0.5" in="SourceAlpha" result="shadowOffsetOuter1"/>
            <feGaussianBlur stdDeviation="0.25" in="shadowOffsetOuter1" result="shadowBlurOuter1"/>
            <feColorMatrix values="0 0 0 0 0   0 0 0 0 0   0 0 0 0 0  0 0 0 0.195968094 0" type="matrix" in="shadowBlurOuter1" result="shadowMatrixOuter1"/>
            <feMerge>
                <feMergeNode in="shadowMatrixOuter1"/>
                <feMergeNode in="SourceGraphic"/>
            </feMerge>
        </filter>
    </defs>
    <g id="📦-Component" stroke="none" stroke-width="1" fill="none" fill-rule="evenodd">
        <g id="📦-Component/Desktop/Header/Sign-In/Open/Community-1024" transform="translate(-602.000000, -120.000000)">
            <g id="Group-2" transform="translate(0.000000, 55.000000)">
                <g id="Glossary" transform="translate(602.000000, 65.000000)">
                    <rect id="Rectangle-Copy-3" fill="url(#radialGradient-1)" x="0" y="0" width="80" height="80" rx="6"/>
                    <g id="Group-2" transform="translate(20.000000, 18.000000)">
                        <g id="Rectangle">
                            <use fill="black" fill-opacity="1" filter="url(#filter-4)" xlink:href="#path-3"/>
                            <use fill="url(#linearGradient-2)" fill-rule="evenodd" xlink:href="#path-3"/>
                        </g>
                        <g id="Rectangle-Copy">
                            <use fill="black" fill-opacity="1" filter="url(#filter-7)" xlink:href="#path-6"/>
                            <use fill="url(#linearGradient-5)" fill-rule="evenodd" xlink:href="#path-6"/>
                        </g>
                        <g id="Group-5" transform="translate(7.230000, 6.840000)" fill="#FFFFFF" fill-rule="nonzero">
                            <g id="Group-4" transform="translate(10.770000, 1.160000)">
                                <path d="M1,4 L13,4 C13.5522847,4 14,4.44771525 14,5 C14,5.55228475 13.5522847,6 13,6 L1,6 C0.44771525,6 -4.87476137e-16,5.55228475 0,5 C-6.76353751e-17,4.44771525 0.44771525,4 1,4 Z" id="Rectangle-Copy-9"/>
                                <path d="M1,13 L13,13 C13.5522847,13 14,13.4477153 14,14 C14,14.5522847 13.5522847,15 13,15 L1,15 C0.44771525,15 -4.87476137e-16,14.5522847 0,14 C-6.76353751e-17,13.4477153 0.44771525,13 1,13 Z" id="Rectangle-Copy-13"/>
                                <rect id="Rectangle-Copy-10" x="0" y="0" width="10" height="2" rx="1"/>
                                <rect id="Rectangle-Copy-11" x="0" y="9" width="10" height="2" rx="1"/>
                            </g>
                            <g id="A">
                                <path d="M1.71,0.28 C1.82333333,0.213333333 1.995,0.15 2.225,0.09 C2.455,0.03 2.68666667,0 2.92,0 C3.25333333,0 3.54833333,0.0483333333 3.805,0.145 C4.06166667,0.241666667 4.22666667,0.393333333 4.3,0.6 C4.42,0.946666667 4.55,1.35 4.69,1.81 C4.83,2.27 4.97,2.745 5.11,3.235 C5.25,3.725 5.38666667,4.20833333 5.52,4.685 C5.65333333,5.16166667 5.77,5.58333333 5.87,5.95 C5.79,6.04333333 5.67,6.11833333 5.51,6.175 C5.35,6.23166667 5.16,6.26 4.94,6.26 C4.78,6.26 4.645,6.24666667 4.535,6.22 C4.425,6.19333333 4.335,6.15333333 4.265,6.1 C4.195,6.04666667 4.13833333,5.97666667 4.095,5.89 C4.05166667,5.80333333 4.01333333,5.70333333 3.98,5.59 L3.8,4.9 L1.99,4.9 C1.93666667,5.1 1.88333333,5.30666667 1.83,5.52 C1.77666667,5.73333333 1.72333333,5.94 1.67,6.14 C1.57666667,6.17333333 1.47833333,6.20166667 1.375,6.225 C1.27166667,6.24833333 1.14666667,6.26 1,6.26 C0.66,6.26 0.408333333,6.20166667 0.245,6.085 C0.0816666667,5.96833333 0,5.80666667 0,5.6 C0,5.50666667 0.0133333333,5.41333333 0.04,5.32 C0.0666666667,5.22666667 0.0966666667,5.11666667 0.13,4.99 C0.176666667,4.81 0.241666667,4.58666667 0.325,4.32 C0.408333333,4.05333333 0.5,3.765 0.6,3.455 C0.7,3.145 0.806666667,2.82666667 0.92,2.5 C1.03333333,2.17333333 1.14,1.865 1.24,1.575 C1.34,1.285 1.43166667,1.02666667 1.515,0.8 C1.59833333,0.573333333 1.66333333,0.4 1.71,0.28 Z M2.91,1.57 C2.81666667,1.85 2.71166667,2.16166667 2.595,2.505 C2.47833333,2.84833333 2.37333333,3.19666667 2.28,3.55 L3.52,3.55 C3.42666667,3.19 3.33166667,2.83833333 3.235,2.495 C3.13833333,2.15166667 3.05,1.84333333 2.97,1.57 L2.91,1.57 Z" id="Shape"/>
                            </g>
                        </g>
                        <g id="Group-6" transform="translate(7.650000, 27.770000)" fill="#FFFFFF" fill-rule="nonzero">
                            <path d="M11.35,4.23 L23.35,4.23 C23.9022847,4.23 24.35,4.67771525 24.35,5.23 C24.35,5.78228475 23.9022847,6.23 23.35,6.23 L11.35,6.23 C10.7977153,6.23 10.35,5.78228475 10.35,5.23 C10.35,4.67771525 10.7977153,4.23 11.35,4.23 Z" id="Rectangle-Copy-14"/>
                            <rect id="Rectangle-Copy-12" x="10.35" y="0.23" width="10" height="2" rx="1"/>
                            <g id="B" filter="url(#filter-8)">
                                <path d="M1.7,4.98 C1.79333333,5.00666667 1.91333333,5.025 2.06,5.035 C2.20666667,5.045 2.34666667,5.05 2.48,5.05 C2.74666667,5.05 2.96833333,4.995 3.145,4.885 C3.32166667,4.775 3.41,4.60333333 3.41,4.37 C3.41,4.15 3.33666667,3.99333333 3.19,3.9 C3.04333333,3.80666667 2.82,3.76 2.52,3.76 L1.7,3.76 L1.7,4.98 Z M1.7,2.54 L2.43,2.54 C2.71666667,2.54 2.925,2.48666667 3.055,2.38 C3.185,2.27333333 3.25,2.11666667 3.25,1.91 C3.25,1.73 3.175,1.58666667 3.025,1.48 C2.875,1.37333333 2.65,1.32 2.35,1.32 C2.25,1.32 2.135,1.32333333 2.005,1.33 C1.875,1.33666667 1.77333333,1.34666667 1.7,1.36 L1.7,2.54 Z M2.35,6.39 C2.23666667,6.39 2.10333333,6.38666667 1.95,6.38 C1.79666667,6.37333333 1.63833333,6.36 1.475,6.34 C1.31166667,6.32 1.15,6.295 0.99,6.265 C0.83,6.235 0.683333333,6.19333333 0.55,6.14 C0.183333333,6 0,5.75666667 0,5.41 L0,0.74 C0,0.6 0.0383333333,0.491666667 0.115,0.415 C0.191666667,0.338333333 0.296666667,0.276666667 0.43,0.23 C0.656666667,0.15 0.94,0.0916666667 1.28,0.055 C1.62,0.0183333333 1.97,0 2.33,0 C3.18333333,0 3.84,0.143333333 4.3,0.43 C4.76,0.716666667 4.99,1.16 4.99,1.76 C4.99,2.06 4.90333333,2.31833333 4.73,2.535 C4.55666667,2.75166667 4.32333333,2.91 4.03,3.01 C4.36333333,3.10333333 4.64166667,3.27333333 4.865,3.52 C5.08833333,3.76666667 5.2,4.07666667 5.2,4.45 C5.2,5.11 4.955,5.59833333 4.465,5.915 C3.975,6.23166667 3.27,6.39 2.35,6.39 Z" id="Shape"/>
                            </g>
                        </g>
                    </g>
                </g>
            </g>
        </g>
    </g>
</svg>