<svg xmlns="http://www.w3.org/2000/svg" xmlns:xlink="http://www.w3.org/1999/xlink" width="80px" height="80px" viewBox="0 0 80 80" version="1.1">
    <title>Forum</title>
    <defs>
        <radialGradient cx="50%" cy="50%" fx="50%" fy="50%" r="50%" id="radialGradient-1">
            <stop stop-color="#3B3B40" offset="0%"/>
            <stop stop-color="#252528" offset="100%"/>
        </radialGradient>
        <path d="M17.3835116,3.55271368e-15 C20.8484612,3.55271368e-15 23.2229672,2.96051954 23.2229672,5.74346248 L23.2286779,5.96051954 L23.2286779,23.9605195 L16.4935671,17.1356605 L5.33875955,17.1356605 C2.34149175,17.1356605 -0.238264164,13.9743905 0.0175356268,11.1912888 L0.0118248809,10.9742317 L0.0118248809,5.69950643 C0.0118248809,1.96051954 2.93735219,3.55271368e-15 5.59337552,0.0058536596 L5.80513326,3.55271368e-15 L17.3835116,3.55271368e-15 Z" id="path-2"/>
        <filter x="-30.1%" y="-20.9%" width="160.3%" height="158.4%" filterUnits="objectBoundingBox" id="filter-3">
            <feOffset dx="0" dy="2" in="SourceAlpha" result="shadowOffsetOuter1"/>
            <feGaussianBlur stdDeviation="2" in="shadowOffsetOuter1" result="shadowBlurOuter1"/>
            <feColorMatrix values="0 0 0 0 0   0 0 0 0 0   0 0 0 0 0  0 0 0 0.154010052 0" type="matrix" in="shadowBlurOuter1"/>
        </filter>
        <path d="M17.3835116,0 C20.8484612,0 23.2229672,2.96051954 23.2229672,5.74346248 L23.2286779,5.96051954 L23.2286779,23.9605195 L16.4935671,17.1356605 L5.33875955,17.1356605 C2.34149175,17.1356605 -0.238264164,13.9743905 0.0175356268,11.1912888 L0.0118248809,10.9742317 L0.0118248809,5.69950643 C0.0118248809,1.96051954 2.93735219,0 5.59337552,0.0058536596 L5.80513326,0 L17.3835116,0 Z" id="path-4"/>
        <filter x="-30.1%" y="-20.9%" width="160.3%" height="158.4%" filterUnits="objectBoundingBox" id="filter-5">
            <feOffset dx="0" dy="2" in="SourceAlpha" result="shadowOffsetOuter1"/>
            <feGaussianBlur stdDeviation="2" in="shadowOffsetOuter1" result="shadowBlurOuter1"/>
            <feColorMatrix values="0 0 0 0 0   0 0 0 0 0   0 0 0 0 0  0 0 0 0.154010052 0" type="matrix" in="shadowBlurOuter1"/>
        </filter>
        <path d="M17.37519,1.96051954 C19.4356599,1.96051954 21.1190051,3.61558998 21.2289387,5.69950643 L21.2346495,5.91656349 L21.2346495,19.1033767 L17.37519,15.1473327 L5.79681165,15.1473327 C3.73634174,15.1473327 2.05299654,13.4922623 1.94306294,11.4083458 L1.93735219,11.1912888 L1.93735219,5.91656349 C1.93735219,3.8045295 3.55201506,2.07905793 5.58505392,1.9663732 L5.79681165,1.96051954 L17.37519,1.96051954 Z" id="path-6"/>
        <filter x="-36.3%" y="-29.2%" width="172.5%" height="181.7%" filterUnits="objectBoundingBox" id="filter-7">
            <feOffset dx="0" dy="2" in="SourceAlpha" result="shadowOffsetOuter1"/>
            <feGaussianBlur stdDeviation="2" in="shadowOffsetOuter1" result="shadowBlurOuter1"/>
            <feColorMatrix values="0 0 0 0 0   0 0 0 0 0   0 0 0 0 0  0 0 0 0.154010052 0" type="matrix" in="shadowBlurOuter1"/>
        </filter>
        <path d="M17.37519,1.96051954 C19.4356599,1.96051954 21.1190051,3.61558998 21.2289387,5.69950643 L21.2346495,5.91656349 L21.2346495,19.1033767 L17.37519,15.1473327 L5.79681165,15.1473327 C3.73634174,15.1473327 2.05299654,13.4922623 1.94306294,11.4083458 L1.93735219,11.1912888 L1.93735219,5.91656349 C1.93735219,3.8045295 3.55201506,2.07905793 5.58505392,1.9663732 L5.79681165,1.96051954 L17.37519,1.96051954 Z" id="path-8"/>
        <filter x="-36.3%" y="-29.2%" width="172.5%" height="181.7%" filterUnits="objectBoundingBox" id="filter-9">
            <feOffset dx="0" dy="2" in="SourceAlpha" result="shadowOffsetOuter1"/>
            <feGaussianBlur stdDeviation="2" in="shadowOffsetOuter1" result="shadowBlurOuter1"/>
            <feColorMatrix values="0 0 0 0 0   0 0 0 0 0   0 0 0 0 0  0 0 0 0.154010052 0" type="matrix" in="shadowBlurOuter1"/>
        </filter>
        <path d="M5.14945946,0 C4.43895259,0 3.86297297,0.590393737 3.86297297,1.31868132 C3.86297297,2.0469689 4.43895259,2.63736264 5.14945946,2.63736264 C5.85996633,2.63736264 6.43594595,2.0469689 6.43594595,1.31868132 C6.43594595,0.590393737 5.85996633,0 5.14945946,0 Z" id="path-10"/>
        <filter x="-38.9%" y="-19.0%" width="177.7%" height="175.8%" filterUnits="objectBoundingBox" id="filter-11">
            <feOffset dx="0" dy="0.5" in="SourceAlpha" result="shadowOffsetOuter1"/>
            <feGaussianBlur stdDeviation="0.25" in="shadowOffsetOuter1" result="shadowBlurOuter1"/>
            <feColorMatrix values="0 0 0 0 0   0 0 0 0 0   0 0 0 0 0  0 0 0 0.195968094 0" type="matrix" in="shadowBlurOuter1"/>
        </filter>
    </defs>
    <g id="ðŸ“¦-Component" stroke="none" stroke-width="1" fill="none" fill-rule="evenodd">
        <g id="ðŸ“¦-Component/Desktop/Header/Sign-In/Open/Community-1024" transform="translate(-212.000000, -120.000000)">
            <g id="Group-2" transform="translate(0.000000, 55.000000)">
                <g id="Forum" transform="translate(212.000000, 65.000000)">
                    <rect id="Rectangle" fill="url(#radialGradient-1)" x="0" y="0" width="80" height="80" rx="6"/>
                    <g id="â™ ï¸-Glyph/Mainmenu/Forum-Copy" transform="translate(16.062648, 17.039480)">
                        <path d="M25.8478,35.9916307 C27.6086814,36.0331124 29.5310373,37.0728819 30.69911,38.488393 C32.451219,40.6116597 32.051462,42.2689832 31.2816431,43.10525 C31.0613065,43.3446052 30.7082528,43.5523349 30.2224818,43.7284392 C29.7996546,43.8817247 29.3478906,43.9605195 28.8918608,43.9605195 L17.9828436,43.9605195 C17.5268138,43.9605195 17.0750498,43.8817247 16.6522226,43.7284392 C16.1664516,43.5523349 15.8133979,43.3446052 15.5930613,43.10525 C14.8232424,42.2689832 14.4234854,40.6116597 16.1755944,38.488393 C17.343667,37.0728819 19.3238933,36.0331124 21.0269044,35.9916307 C22.7299156,35.9501491 24.0869185,35.9501491 25.8478,35.9916307 Z M38.138581,34.9877382 C39.5563674,35.0240298 41.1041663,35.9337066 42.0446484,37.1721135 C43.4553717,39.0297238 43.1335044,40.4796883 42.5136792,41.2113241 C42.3362736,41.4207319 42.0520098,41.6024711 41.6608877,41.7565418 C41.3204454,41.8906487 40.9567043,41.959585 40.5895286,41.959585 L34.6730939,41.9605195 C34.7559027,40.8667731 34.436365,39.5616023 33.706513,38.4605195 C33.1398873,37.6056862 32.8104331,37.1721135 31.4373522,36.0927115 C32.2975289,35.4374138 33.3284441,35.0123145 34.257002,34.9877382 C35.6281937,34.9514466 36.7207945,34.9514466 38.138581,34.9877382 Z M12.7219783,34.9877382 C13.6505362,35.0123145 14.6814515,35.4374138 15.5416281,36.0927115 C14.1685472,37.1721135 13.839093,37.6056862 13.2724673,38.4605195 C12.5426154,39.5616023 12.2230776,40.8667731 12.3058864,41.9605195 L6.38945168,41.959585 C6.02227599,41.959585 5.6585349,41.8906487 5.31809257,41.7565418 C4.92697053,41.6024711 4.64270672,41.4207319 4.46530115,41.2113241 C3.84547586,40.4796883 3.5236086,39.0297238 4.93433187,37.1721135 C5.87481405,35.9337066 7.42261288,35.0240298 8.84039935,34.9877382 C10.2581858,34.9514466 11.3507866,34.9514466 12.7219783,34.9877382 Z M23.9373522,24.9605195 C26.6987759,24.9605195 28.9373522,27.1990958 28.9373522,29.9605195 C28.9373522,32.7219433 26.6987759,34.9605195 23.9373522,34.9605195 C21.1759284,34.9605195 18.9373522,32.7219433 18.9373522,29.9605195 C18.9373522,27.1990958 21.1759284,24.9605195 23.9373522,24.9605195 Z M10.9373522,25.9605195 C13.1464912,25.9605195 14.9373522,27.7513805 14.9373522,29.9605195 C14.9373522,32.1696585 13.1464912,33.9605195 10.9373522,33.9605195 C8.7282132,33.9605195 6.93735219,32.1696585 6.93735219,29.9605195 C6.93735219,27.7513805 8.7282132,25.9605195 10.9373522,25.9605195 Z M35.9373522,25.9605195 C38.1464912,25.9605195 39.9373522,27.7513805 39.9373522,29.9605195 C39.9373522,32.1696585 38.1464912,33.9605195 35.9373522,33.9605195 C33.7282132,33.9605195 31.9373522,32.1696585 31.9373522,29.9605195 C31.9373522,27.7513805 33.7282132,25.9605195 35.9373522,25.9605195 Z" id="Combined-Shape" fill="#8D7BF5"/>
                        <g id="Path-Copy-4">
                            <use fill="black" fill-opacity="1" filter="url(#filter-3)" xlink:href="#path-2"/>
                            <use fill="#8D7BF5" fill-rule="evenodd" xlink:href="#path-2"/>
                        </g>
                        <g id="Group" transform="translate(36.614339, 11.980260) scale(-1, 1) translate(-36.614339, -11.980260) translate(25.000000, 0.000000)">
                            <g id="Path-Copy-5">
                                <use fill="black" fill-opacity="1" filter="url(#filter-5)" xlink:href="#path-4"/>
                                <use fill="#8D7BF5" fill-rule="evenodd" xlink:href="#path-4"/>
                            </g>
                            <g id="Path-Copy-6">
                                <use fill="black" fill-opacity="1" filter="url(#filter-7)" xlink:href="#path-6"/>
                                <use fill="#8D7BF5" fill-rule="evenodd" xlink:href="#path-6"/>
                            </g>
                        </g>
                        <g id="Path-Copy-3">
                            <use fill="black" fill-opacity="1" filter="url(#filter-9)" xlink:href="#path-8"/>
                            <use fill="#8D7BF5" fill-rule="evenodd" xlink:href="#path-8"/>
                        </g>
                        <rect id="Rectangle" fill="#FFFFFF" fill-rule="nonzero" x="5.93735219" y="4.96051954" width="11" height="2" rx="1"/>
                        <rect id="Rectangle-Copy" fill="#FFFFFF" fill-rule="nonzero" x="5.93735219" y="8.96051954" width="7" height="2" rx="1"/>
                        <g id="Group-2" transform="translate(31.786001, 7.235245)" fill-rule="nonzero">
                            <path d="M1.28648649,0 C0.575979619,0 0,0.590393737 0,1.31868132 C0,2.0469689 0.575979619,2.63736264 1.28648649,2.63736264 C1.99699335,2.63736264 2.57297297,2.0469689 2.57297297,1.31868132 C2.57297297,0.590393737 1.99699335,0 1.28648649,0 Z" id="Path" fill="#FFFFFF"/>
                            <g id="Path">
                                <use fill="black" fill-opacity="1" filter="url(#filter-11)" xlink:href="#path-10"/>
                                <use fill="#FFFFFF" xlink:href="#path-10"/>
                            </g>
                            <path d="M9.01243243,0 C8.30192557,0 7.72594595,0.590393737 7.72594595,1.31868132 C7.72594595,2.0469689 8.30192557,2.63736264 9.01243243,2.63736264 C9.7229393,2.63736264 10.2989189,2.0469689 10.2989189,1.31868132 C10.2989189,0.590393737 9.7229393,0 9.01243243,0 Z" id="Path" fill="#FFFFFF"/>
                        </g>
                    </g>
                </g>
            </g>
        </g>
    </g>
</svg>