<svg xmlns="http://www.w3.org/2000/svg" width="30" height="30" viewBox="0 0 30 30"><defs><linearGradient id="prefix__avbb" x1="-14.554%" x2="96.374%" y1="-57.183%" y2="228.848%"><stop offset="0%" stop-color="#FFF"></stop><stop offset="100%" stop-color="#F5F5F5"></stop></linearGradient></defs><path fill="url(#prefix__avbb)" d="M13 4c.71 0 1.286.576 1.286 1.286l-.001 6.428h6.43c.71 0 1.285.576 1.285 1.286 0 .71-.576 1.286-1.286 1.286l-6.429-.001v6.43c0 .71-.575 1.285-1.285 1.285s-1.286-.576-1.286-1.286v-6.429H5.286C4.576 14.286 4 13.71 4 13s.576-1.286 1.286-1.286h6.428V5.286C11.714 4.576 12.29 4 13 4z" transform="rotate(45 11.586 16.414)"></path></svg>